<svg height="512" viewBox="0 0 128 128" width="512" xmlns="http://www.w3.org/2000/svg"><g id="Circle_Grid" data-name="Circle Grid"><circle cx="64" cy="64" fill="#ea8953" r="64"/></g><g id="icon"><path d="m64.655 30.09v2.122c-.522-.017-1.061-.034-1.583-.034-.539 0-1.061.017-1.583.051v-2.139a3.728 3.728 0 0 1 2.83-6.89 3.506 3.506 0 0 1 2.257 2.206 3.758 3.758 0 0 1 -1.921 4.684z" fill="#eeefee"/><path d="m73.989 72.6-.341 5.614a3.109 3.109 0 0 1 -3.054 2.921l-2.107.034a14.5 14.5 0 0 1 -9.153-3.069l-10.708-10a2.566 2.566 0 0 0 -2.028-.53 2.566 2.566 0 0 0 -1.519 4.21l11.046 15.07a14.5 14.5 0 0 0 2.158 2.122l13.849 10.286 13.06-8.167-5.35-7.8a6.969 6.969 0 0 1 -.764-2.237l-1.406-8.8a1.872 1.872 0 0 0 -2.28-1.355 1.872 1.872 0 0 0 -1.403 1.701z" fill="#fed19a"/><rect fill="#2cbfae" height="9.277" rx="1.618" transform="matrix(.799 -.601 .601 .799 -41.634 66.483)" width="21.23" x="68.082" y="90.922"/><path d="m34.799 63.599h59.492v3.245h-59.492z" fill="#dbd8dd"/><path d="m96.487 70.645-5.139 4.049h-53.605l-5.14-4.049z" fill="#dbd8dd"/><path d="m29.236 66.844h70.618v5.11h-70.618z" fill="#eeefee"/><path d="m98 63.74h-69.85a35.155 35.155 0 0 1 33.34-31.51c.52-.03 1.04-.05 1.58-.05.52 0 1.06.02 1.59.03a35.148 35.148 0 0 1 33.34 31.53z" fill="#dbd8dd"/><path d="m89.562 63.737h-61.416a34.958 34.958 0 0 1 10.104-21.237 35.089 35.089 0 0 1 51.312 21.237z" fill="#eeefee"/><circle cx="73.75" cy="99.258" fill="#dbd8dd" r="1.559"/></g></svg>