<?xml version="1.0" encoding="utf-8"?>
<!-- Generator: Adobe Illustrator 21.0.2, SVG Export Plug-In . SVG Version: 6.00 Build 0)  -->
<svg version="1.1" id="Capa_1" xmlns="http://www.w3.org/2000/svg" xmlns:xlink="http://www.w3.org/1999/xlink" x="0px" y="0px"
	 viewBox="0 0 1920 109" style="enable-background:new 0 0 1920 109;" xml:space="preserve">
<style type="text/css">
	.st0{fill:#ffffff;}
</style>
<path class="st0" d="M1905.2,103.1l5.6,0.8c-2.2,1.5-17.4-3.7-21-2.3l-0.8-0.3c0,0.2,0.1,0.3,0.3,0.3c2.4,0.3,4.8,0.7,7.2,1
	c1.8,0.2,3.6,0.4,5.4,0.6c0.5,0.1,1,0.3,1.5,0.4c0.2,0.1,0.3,0.3,0.4,0.4c0,0.2-0.2,0.3-0.4,0.3c-1.2,0.1-2.4-0.1-3.6-0.2
	c-2.1-0.3-4.3-0.5-6.4-0.8c-0.5-0.1-0.9,0-1.4,0c-1.3,0-2.5,0-3.8-0.2c-0.5-0.1-1-0.1-1.4-0.1c-2.6,0.2-5.1,0-7.7-0.1
	c-0.6,0-1.2,0-1.8,0c-0.7,0.1-0.8,0.3-0.4,1.1c0.1-0.1,0.1-0.1,0.2-0.2c0.2,0.1,0.3,0.1,0.3,0.2v0c0,0,0.6,0.1,0.8,0.1
	c0.1-0.1,0.5-0.1,0.6-0.2c0.2,0.1,0.3,0.1,0.5,0.2c0.2,0.1,0.3,0.2,0.5,0.2c0.1-0.1,0.2,0.1,0.3,0c0.1,0,0.1,0.2,0.1,0.4
	c-0.3-0.1-0.6-0.1-0.9-0.2v0c0-0.2-0.2,0.3-0.4,0.4l0.5,0.2c-1.4,0.8-2.9,1.3-4.6,0.9c-0.2,0-0.4-0.1-0.6-0.1c-0.9,0-1,0.1-1.4,1.1
	c-0.2,0.5-0.3,0.7-0.6,0.7c-0.1,0-0.3-0.1-0.6-0.2c-1.5-1-3.1-1.8-4.9-2.1c-0.5-0.1-0.9-0.5-1.4-0.7c-2.2-0.2-4.4-0.4-6.6-0.6
	c-1.5-0.1-2.9-0.4-4.4-0.3c-1,0.1-2.1-0.3-3.2-0.5c-0.7-0.1-0.7-0.5-0.2-1.1c0.4-0.5,0.3-0.7-0.2-0.8c-2.5-0.6-5.1-1.2-7.6-1.8
	c-1.3-0.3-2.6-0.7-4-0.7c-0.3,0-0.7-0.2-1-0.3c-0.6,0-0.9,0-1.8-0.5l0,0c-0.1,0.2-0.3,0.2-0.6,0.3c0,0.6,0.5,0.9,1,1
	c0.7,0.1,1.3,0.2,2,0.4c1.7,0.5,3.4,0.9,5.1,1c0.9,0.1,1.8,0.4,2.7,0.9c0.1,0.1,0.2,0.2,0.2,0.3c0,0.2-0.2,0.4-0.4,0.4
	c-1,0.1-2,0-3-0.3c-0.9-0.3-1.8-0.5-2.8-0.4c-0.5,0-0.9,0-1.4-0.1c-2.7-0.6-5.4-1.1-8-1.7c-1-0.2-2.1-0.6-3.1-0.7
	c-0.6,0-1.2-0.2-1.7-0.6c-0.7-0.2-1.4-0.4-2.1-0.6c-0.5-0.1-1-0.3-1.4-0.6c-0.3,0-0.6,0.1-0.8,0c-2.5-0.7-5.1-1.1-7.5-2.2
	c-0.7-0.3-1.4-0.6-2.1-0.5c-1,0-1.9-0.2-2.8-0.5c-0.6-0.2-1.3-0.4-2-0.5c-1.3-0.1-2.5-0.6-3.8-0.9c-0.7-0.2-1.2,0.1-1.8-0.9
	c0,0,0,0,0,0c-1.3,2-1.9,0.4-3-0.1c-2.5-1.2-5-2.2-7.7-2.7c-0.5,0.2-1.1,0.3-1.7,0.2c-0.4,0-0.9,0-1.3,0c-0.1-0.1-0.1-0.2-0.1-0.3
	c-0.7-0.2-1.4-0.1-2.2-0.3c-0.8-0.2-2.3,0.3-1.9-0.7L1784,89l-0.5,0l0.3-0.9c-0.2-0.1-0.3-0.9-0.3-1l0-0.1c-1.2,0.4-3.3-0.3-4.8-1
	l0.1,0.1c-1.1-0.2-2.3-0.5-3.2-1.2c-0.5-0.3-1.1-0.6-1.7-0.7c-2.1-0.4-3.9-1.4-5.7-2.4c0,0.1,0,0.3-0.1,0.2
	c-0.9,0.8-1.6,0.7-2.3-0.2c-0.2-0.4-0.5-0.5-0.9-0.7c-1.5-0.8-3.1-1.4-4.7-2c-1.1-0.4-2.3-0.7-3.2-1.6c-0.4-0.4-0.8-0.7-1.4-0.7
	c-0.8,0-1.6-0.3-2.3-0.8c-0.3-0.2-0.6-0.3-0.9-0.4c-1.7-0.6-3.4-1.3-5.1-1.9c-1.6-0.5-3-1.3-4.5-2.1c-0.3,0.2,0.6,0.8,1.2,1.2
	c-7.3-3.2-7.4-0.3-11.7-0.7l-10.7-4.6c-4.7,0-1.3,1.5-1.7,1.9c-10.6-1.5-20.9-4-30.8-6c-9.9-2-19.3-3.8-27.9-4.3
	c-5.3-1.8,1.6-2-5.5-3.5c9,4.2-18.9-1.6-15.7,0.6c-1.6-0.9-3.8-1.6-6.2-2.2c-2.7-0.7-5.6-1.2-8.2-1.7c-4.5-0.9-7.9-1.8-7.7-3.2
	c-2-0.3-4.1-0.6-6.1-0.9c-0.6,0.5,0.3,1.2,1.6,1.6c-10-1.6-18.1-2.8-26.4-2.7c-2.7-0.9-14.1-2.4-26-3.9c-11.9-1.6-24.2-3.5-28.5-5.6
	c5.9,2.8-0.6,1-6.6,1.1l5.1,2.5l-13.2-1.9c-2.7-0.2-3.5-0.4-3.4-0.5c-2.2-0.4,0.7-1-5-2.2c-9-1.2-9.5-0.2-14.6,0.1l1.3,0.4l-6.1-0.5
	c-4.5-0.6,16.1,0.1,1.5-2.6c-0.3,0.5-9.2,1.8-13,0.1c7.5,1,6.7-0.4,4-1.2l-10.5-1.4l3.2,2.7c-30.1-3.9-61.3-8.4-93.5-11.7
	c0.6-1.8-18.7-2.1-19.9-4.1c-3.3-0.3-6.5-0.6-9.8-0.9c-0.6,0.4,0.6,0.9,6.7,1.6l-12.8,0.3c-7.5,5-33.7-3.6-53.1-3
	c1.4-0.1,1.7-0.4,1.9-0.6c-17.2,0.6-38.2-4.3-42.2-3.7l-1.4-1.7c-3.7,0.3-6.6,0.6-9.1,0.8c-2.5,0.2-4.7,0.3-6.9,0.3
	c-4.5,0-9.2-0.5-17.9-1.5c0.2-0.2,2.3-0.6-0.5-1c-4.3,0.9-8.5,1.8-20.4,0.8l0.5-0.5l-18.7-0.8c0.3-4.8-32.1,1.6-37.5-3.8
	c-3.7,1.2-17.4,1.1-23.5,1.5c0-0.2-0.4-0.4-1.4-0.7c-7.2,2.2-20.7-1.5-28.6-1.4c-5.2,0.5-3,1.4-0.7,2.2c-10.2-2.3-28.3,1.6-32,0.6
	c-7.5-0.4-2.8-1.9-4.8-3c-11.2,0.2,1.8,4.4-13.1,2.1c1.7-0.2,5-0.3,3.7-0.6c-1.4-0.1-3.1-0.6-5-1.2c-1.8-0.6-3.8-1.3-5.8-1.9
	c-2.5-0.8-4.9-1.6-7.1-1.9c-1.2,0-2.4,0-3.5-0.1c0,0-0.1,0-0.1,0l3.8,0.9c-4.8,0.5-10.4-0.3-15.2-1c-3.7,0-7.3-0.1-11-0.1
	c-0.1,0.1-0.1,0.2-0.2,0.2l1,1.5c-18-2.1-7.6,0.5-25.8-1.4l0.2-0.2c-2.8,0.1-5.1-0.1-7.1-0.3c-2.1,0-4.1,0-6.2,0
	c-1,0.2-1.9,0.5-2.8,1.1l2.7,0.3c-9.9,0.3-10.7,0.1-20.8,0c-1.2,0.2-6,0.6-7.4,0.1c-0.4,2-23.3,1.1-27.8,1c7.9-0.4,4.2-1.2,1.9-2
	c-4.7,1.7-7.9,1.9-14.4,0.7c-0.9,2.5-2.1,5.2-14.9,5.6c2-0.4,5.1-0.7,3.8-1.2c-1.3-0.5-4.3,0.1-5.3,0.4c-1.3-0.5,2.8-1,1.4-1.8
	c-8.6,2.6-14.9,0.5-27.4,1.6c4-0.8,0.5-1.2-0.9-2.1c-0.9,2.8-17.2-2.1-12.3,1.5c-6.1-0.4-13.1-0.5-20.3-0.3
	c-7.1,0.1-14.5,0.4-21.3,0.6c-13.7,0.5-25.5,0.8-30.3-0.2c-2.6-0.9-9.4,1.1-13.6,1.4l0.5-1.3c-11.8,2.9-9.3,1.3-23.2,4.3
	c5.7-1.8,3.3-2.3-2.6-3.2l-9.5,3.1l-2-1.8c-3.9,0.9-8.3,0.9-12.7,0.9c-3.8,2.3-18.7,3.1-21.1,4.4c-4.5-2.3-11.5,1.4-14.8-0.8
	c-1.4,0.5-3.2,0.9-5.2,1.2c2.1,1,3,2.2-0.9,1.9c-0.3,0-0.6,0.1-0.9,0.1l-1.8-1.4c-3.9,0.6-8,1-10.6,1.2c1.2,0,2.6,0.2,4.1,0.5
	c-1.7-0.1-3.3-0.3-4.8-0.4c-0.5,0-1.1,0.1-1.4,0.1c0.2-0.1,0.5-0.1,0.9-0.1c-2.4-0.2-5-0.1-8.4,0.6c-14-1.2-30.5,5.6-46,3.6
	c2.3,0.1,5.6,0,6.4-0.6c-3.2,0.3-6.4,0.4-9.5,0.5c-3.1,0.1-6.2,0.2-9.1,0.3c-5.8,0.2-11,0.4-15,1.3l0.7,1.3
	c-9.3,1.5-16.5,2.6-24,3.2l-0.3,1.6c-2.7,0.1-6.3,0.5-10.1,0.9c-3.8,0.5-8,1.1-12,1.6c-8.1,1-15.6,1.6-19.1,0.3
	c-2.5,1.5-15.2,1.2-21.3,2.3l-1.7-1c-8.1,0.5-13.1,1.6-17.9,2.5c-16.7-0.6-31.6,3.6-46,5.3l-0.2-0.3l-14.4,2.8
	c3.7-1.6-2.8,1.1-7.2,1.4c-4.6,1.2-12.1,1.9-17.7,1.8l-9.3,1.1c10.2-2.2-0.9-1.6-1.7-3l-5.8,2c-2.5-0.3,3.7-1.6-0.7-1.3
	c-3.9,1.3-15.6,2.9-19,4.9c0.6,0.3,2.1,0.4,3.9,0.4c0.5-0.2,0.5-0.1,0.2,0c0.2,0,0.3,0,0.4,0c-0.2,0-0.3,0-0.5,0
	c-0.5,0.2-1.2,0.6-1.5,0.8c-7.4,0.7-4.6,0.9-4.3,1.5c-8.3-0.9-12.7,1-19-0.3c2.9,0.7-1.5,1.4-6.3,2.1c-5.2,0.8-10.8,1.6-7.9,2.6
	c-6.5-1.2-4.3,0.6-8.5-0.7c4.4-0.4,8.7-1.4,12.8-2.6c4.1-1.2,7.9-2.5,11.4-3.5l-7.1-0.3c0.2-0.2,0.4-0.3,0.7-0.4
	c-10.7,1.6-21.3,3.2-31.9,4.8c-1,0.5-1.3,0.9-0.2,1.1c-2.5,0-3.2-0.3-4.7-0.4c-2.5,0.4-5.1,0.8-7.6,1.2c-5.5,2,7.6,0.9,10.1,1.1
	c-6.9,1.8-6.8,2.3-7,2.9c-3.4-0.7-6.4-2-7.4-3.3c-15,2.4-29.9,4.8-44.7,7.4l2.7,0.1l-11.3,2.6c0.6-0.5-0.3-1,2.7-1.6
	c-10.4,1.8-20.7,3.6-31,5.4c1.1,0.3,2,0.6,2.8,1.1c-1.2-0.2-4.2-0.3-7.4-0.2C112.7,81,55.2,92.6,0,104.7v4.3h1920v-4.3
	c-4.2-0.9-8.5-1.9-12.8-2.8C1907.4,102.5,1906.9,102.9,1905.2,103.1z"/>
</svg>
