<?xml version="1.0" encoding="iso-8859-1"?>
<!-- Generator: Adobe Illustrator 19.0.0, SVG Export Plug-In . SVG Version: 6.00 Build 0)  -->
<svg version="1.1" id="Capa_1" xmlns="http://www.w3.org/2000/svg" xmlns:xlink="http://www.w3.org/1999/xlink" x="0px" y="0px"
	 viewBox="0 0 512 512" style="enable-background:new 0 0 512 512;" xml:space="preserve">
<g>
	<g>
		<path d="M469.333,106.667H42.667C19.135,106.667,0,125.802,0,149.333v213.333c0,23.531,19.135,42.667,42.667,42.667h426.667
			c23.531,0,42.667-19.135,42.667-42.667V149.333C512,125.802,492.865,106.667,469.333,106.667z M149.333,245.333
			c5.896,0,10.667,4.771,10.667,10.667c0,5.896-4.771,10.667-10.667,10.667H128V288h32c5.896,0,10.667,4.771,10.667,10.667
			c0,5.896-4.771,10.667-10.667,10.667h-42.667c-5.896,0-10.667-4.771-10.667-10.667v-85.333c0-5.896,4.771-10.667,10.667-10.667
			H160c5.896,0,10.667,4.771,10.667,10.667c0,5.896-4.771,10.667-10.667,10.667h-32v21.333H149.333z M256,234.667
			c0,8.188-3.094,15.667-8.167,21.333c5.073,5.667,8.167,13.146,8.167,21.333v21.333c0,5.896-4.771,10.667-10.667,10.667
			c-5.896,0-10.667-4.771-10.667-10.667v-21.333c0-5.885-4.781-10.667-10.667-10.667s-10.667,4.781-10.667,10.667v21.333
			c0,5.896-4.771,10.667-10.667,10.667c-5.896,0-10.667-4.771-10.667-10.667v-21.333c0-8.188,3.094-15.667,8.167-21.333
			c-5.073-5.667-8.167-13.146-8.167-21.333v-21.333c0-5.896,4.771-10.667,10.667-10.667c5.896,0,10.667,4.771,10.667,10.667v21.333
			c0,5.885,4.781,10.667,10.667,10.667s10.667-4.781,10.667-10.667v-21.333c0-5.896,4.771-10.667,10.667-10.667
			c5.896,0,10.667,4.771,10.667,10.667V234.667z M309.333,298.667c0,5.896-4.771,10.667-10.667,10.667
			c-5.896,0-10.667-4.771-10.667-10.667v-85.333c0-5.896,4.771-10.667,10.667-10.667c5.896,0,10.667,4.771,10.667,10.667V298.667z
			 M394.667,224h-21.333v74.667c0,5.896-4.771,10.667-10.667,10.667S352,304.563,352,298.667V224h-21.333
			c-5.896,0-10.667-4.771-10.667-10.667c0-5.896,4.771-10.667,10.667-10.667h64c5.896,0,10.667,4.771,10.667,10.667
			C405.333,219.229,400.563,224,394.667,224z"/>
	</g>
</g>
<g>
</g>
<g>
</g>
<g>
</g>
<g>
</g>
<g>
</g>
<g>
</g>
<g>
</g>
<g>
</g>
<g>
</g>
<g>
</g>
<g>
</g>
<g>
</g>
<g>
</g>
<g>
</g>
<g>
</g>
</svg>
