<svg id="Capa_1" enable-background="new 0 0 512.249 512.249" height="512" viewBox="0 0 512.249 512.249" width="512" xmlns="http://www.w3.org/2000/svg"><g><g><path d="m502.748 248.624-116.816-202.332c-2.68-4.641-7.631-7.5-12.99-7.5h-233.834c-.004.003-.008.005-.012.007l-123.926 204.325 125.477 217.333 252.294-7c.099-.057.212-.122.311-.179l109.496-189.653c2.68-4.642 2.68-10.36 0-15.001z" fill="#fff0af"/><path d="m159.307 453.457c-5.359 0-10.311-2.859-12.99-7.5l-116.817-202.333c-2.68-4.641-2.68-10.359 0-15l109.596-189.825c-5.277.074-10.135 2.913-12.779 7.493l-116.817 202.332c-2.68 4.641-2.68 10.359 0 15l116.817 202.333c2.68 4.641 7.631 7.5 12.99 7.5h233.634c5.359 0 10.311-2.859 12.99-7.5l7.221-12.507c-.071.001-.141.007-.211.007z" fill="#ffe07d"/><path d="m365.946 192.719c-1.295-2.243-3.17-4.151-5.49-5.49l-96.832-55.906c-4.641-2.679-10.359-2.679-15 0l-84.332 48.689-10 43.094 91.832 141.847c4.641 2.68 10.359 2.68 15 0l106.832-65.906v-98.828c0-2.68-.715-5.258-2.01-7.5z" fill="#f7f9fa"/><g fill="#dce6eb"><path d="m164.293 180.011-12.5 7.217c-2.32 1.34-4.195 3.248-5.49 5.49l17.99 20.387z"/><path d="m256.124 354.952-10 15.865 10 12.119c2.59 0 5.18-.67 7.5-2.01l96.832-55.906c4.641-2.68 7.5-7.631 7.5-12.99v-12.984l-96.832 55.906c-4.641 2.679-10.359 2.679-15 0z"/><path d="m154.293 303.272c0 5.359 2.859 10.311 7.5 12.99l94.332 38.689v-98.828l-91.832-53.019z"/></g><path d="m171.793 306.263c-4.641-2.679-7.5-7.631-7.5-12.99v-90.167l-17.99-10.387c-1.295 2.243-2.01 4.821-2.01 7.5v111.811c0 5.359 2.859 10.311 7.5 12.99l96.832 55.906c2.32 1.34 4.91 2.01 7.5 2.01v-27.984z" fill="#b9c3cd"/></g><g><path d="m372.941 480.957h-233.634c-8.013 0-15.479-4.311-19.485-11.25l-116.817-202.333c-4.007-6.939-4.007-15.561 0-22.5l116.817-202.333c4.006-6.939 11.473-11.25 19.485-11.25h233.633c8.013 0 15.479 4.311 19.486 11.25l49.813 86.28c2.071 3.587.842 8.174-2.745 10.245-3.585 2.072-8.173.843-10.245-2.745l-49.813-86.28c-1.336-2.313-3.825-3.75-6.496-3.75h-233.633c-2.671 0-5.16 1.437-6.495 3.75l-116.817 202.333c-1.335 2.313-1.335 5.187 0 7.5l116.817 202.333c1.335 2.313 3.824 3.75 6.495 3.75h233.633c2.671 0 5.16-1.437 6.496-3.75l116.816-202.333c1.336-2.313 1.336-5.187 0-7.5l-51.559-89.302c-2.071-3.587-.842-8.174 2.745-10.245 3.586-2.072 8.175-.843 10.245 2.745l51.559 89.302c4.007 6.939 4.007 15.561 0 22.5l-116.815 202.333c-4.007 6.94-11.474 11.25-19.486 11.25zm-53.648-76.81c-4.411 0-8-3.589-8-8s3.589-8 8-8 8 3.589 8 8-3.589 8-8 8zm-63.168-13.721c-3.891 0-7.781-1.001-11.25-3.005l-96.832-55.906c-6.939-4.006-11.25-11.472-11.25-19.485v-111.811c0-8.013 4.311-15.479 11.25-19.486l96.831-55.905c6.939-4.007 15.562-4.006 22.5 0l96.832 55.906c6.939 4.006 11.25 11.473 11.25 19.485v111.811c0 8.013-4.311 15.479-11.25 19.485l-33.189 19.162c-3.586 2.072-8.175.843-10.245-2.745-2.071-3.587-.842-8.174 2.745-10.245l33.189-19.162c2.313-1.335 3.75-3.824 3.75-6.495v-107.482l-96.832 55.906v111.812l36.316-20.967c3.586-2.072 8.173-.843 10.245 2.745 2.071 3.587.842 8.174-2.745 10.245l-40.066 23.132c-3.469 2.004-7.359 3.005-11.249 3.005zm-104.332-185.877v107.481c0 2.671 1.437 5.16 3.75 6.495l93.082 53.741v-111.812l-35.242-20.347c-3.587-2.071-4.816-6.658-2.745-10.245 2.07-3.587 6.657-4.817 10.245-2.745l35.242 20.347 96.831-55.906-93.081-53.741c-2.312-1.335-5.186-1.336-7.5 0l-93.082 53.741 36.965 21.342c3.587 2.071 4.816 6.658 2.745 10.245s-6.66 4.816-10.245 2.745zm21.37 183.124c-4.411 0-8-3.589-8-8s3.589-8 8-8 8 3.589 8 8-3.589 8-8 8zm176.13-1.526c-4.411 0-8-3.589-8-8s3.589-8 8-8 8 3.589 8 8-3.589 8-8 8z"/></g></g></svg>